# xmcd
#
# Track frame offsets:
#	150
#	12270
#	22247
#	31975
#	44025
#	62635
#	72367
#	88205
#	102167
#	115165
#	125935
#	140580
#	151015
#	163207
#	174310
#	184025
#	196112
#	207690
#
# Disc length: 2908 seconds
#
# Revision: 1
# Processed by: cddbd v1.5.1PL2 Copyright (c) Steve Scherf et al.
# Submitted via: audiograbber 1.83.01
#
DISCID=090b5a12
DTITLE=Robert Simek - Hello, I am not Johnny Cash
DYEAR=1998
DGENRE=Country
TTITLE0=Folsom Prison Blues
TTITLE1=I Walk The Line
TTITLE2=Delia's Gone
TTITLE3=Ring Of Fire
TTITLE4=The Long Black Veil
TTITLE5=Weeck Of The Old '97
TTITLE6=A Song For The Life
TTITLE7=Orange Blossom Special
TTITLE8=Give My Love To Rose
TTITLE9=Hey Porter
TTITLE10=I Would Like To See You again
TTITLE11=San Quentin
TTITLE12=I Still Miss Someone
TTITLE13=Big River
TTITLE14=Flesh And Blood
TTITLE15=Man In Black
TTITLE16=Blistered
TTITLE17=The Great Speckled Bird
EXTD=
EXTT0=
EXTT1=
EXTT2=
EXTT3=
EXTT4=
EXTT5=
EXTT6=
EXTT7=
EXTT8=
EXTT9=
EXTT10=
EXTT11=
EXTT12=
EXTT13=
EXTT14=
EXTT15=
EXTT16=
EXTT17=
PLAYORDER=
